<?xml version="1.0" encoding="utf-8"?>

<svg version="1.1" id="Layer_1" xmlns="http://www.w3.org/2000/svg" xmlns:xlink="http://www.w3.org/1999/xlink" x="0px" y="0px"
	 viewBox="0 0 100 100" style="enable-background:new 0 0 100 100;" xml:space="preserve">
<style type="text/css">
	.st0{fill:none;stroke:#00AEEF;stroke-miterlimit:10;stroke-dasharray:11.8383,11.8383;}
	.st1{fill:#00AEEF;stroke:#00AEEF;stroke-miterlimit:10;}
	.st2{fill:#FFFFFF;stroke:#00AEEF;stroke-miterlimit:10;stroke-dasharray:12;}
</style>
<g id="XMLID_391_">
	<circle id="XMLID_404_" class="st0" cx="50" cy="50" r="49">

		<animateTransform attributeName="transform"
			 attributeType="XML"
			 type="rotate"
			 from="0 50 50"
			 to="360 50 50"
			 dur="10s"
			 repeatCount="indefinite" />

	</circle>
</g>
<ellipse id="XMLID_392_" class="st1" cx="50" cy="50" rx="40.5" ry="40"/>
<path id="XMLID_393_" class="st2" d="M33.3,58.5h-1c-1.1,0-2-0.9-2-2v-17c0-1.1,0.9-2,2-2h1c1.1,0,2,0.9,2,2v17
	C35.3,57.6,34.4,58.5,33.3,58.5z">

	<animateTransform id="hjdvfif"
			 attributeName="transform"
			 attributeType="XML"
			 type="translate"
			 values="0,6; 0, -6; 0, 6"
			 dur="1s"
			 repeatCount="indefinite" />

</path>
<path id="XMLID_394_" class="st2" d="M41.8,58.5h-1c-1.1,0-2-0.9-2-2v-17c0-1.1,0.9-2,2-2h1c1.1,0,2,0.9,2,2v17
	C43.8,57.6,42.9,58.5,41.8,58.5z">

	<animateTransform id="hjdvfif"
			 attributeName="transform"
			 attributeType="XML"
			 type="translate"
			 values="0,6; 0, -6; 0, 6"
			 begin="0.1"
			 dur="1s"
			 repeatCount="indefinite" />

</path>
<path id="XMLID_395_" class="st2" d="M49.3,58.5h-1c-1.1,0-2-0.9-2-2v-17c0-1.1,0.9-2,2-2h1c1.1,0,2,0.9,2,2v17
	C51.3,57.6,50.4,58.5,49.3,58.5z">

	<animateTransform id="hjdvfif"
			 attributeName="transform"
			 attributeType="XML"
			 type="translate"
			 values="0,6; 0, -6; 0, 6"
			 begin="0.2"
			 dur="1s"
			 repeatCount="indefinite" />

</path>
<path id="XMLID_397_" class="st2" d="M65.3,58.5h-1c-1.1,0-2-0.9-2-2v-17c0-1.1,0.9-2,2-2h1c1.1,0,2,0.9,2,2v17
	C67.3,57.6,66.3,58.5,65.3,58.5z">

	<animateTransform id="hjdvfif"
			 attributeName="transform"
			 attributeType="XML"
			 type="translate"
			 values="0,6; 0, -6; 0, 6"
			 begin="0.3"
			 dur="1s"
			 repeatCount="indefinite" />

</path>
<path id="XMLID_396_" class="st2" d="M57.8,58.5h-1c-1.1,0-2-0.9-2-2v-17c0-1.1,0.9-2,2-2h1c1.1,0,2,0.9,2,2v17
	C59.8,57.6,58.9,58.5,57.8,58.5z">

	<animateTransform id="hjdvfif"
			 attributeName="transform"
			 attributeType="XML"
			 type="translate"
			 values="0,6; 0, -6; 0, 6"
			 begin="0.4"
			 dur="1s"
			 repeatCount="indefinite" />

</path>
</svg>
